<svg xmlns="http://www.w3.org/2000/svg" version="1.1" xmlns:xlink="http://www.w3.org/1999/xlink" xmlns:svgjs="http://svgjs.dev/svgjs" width="1500" height="1500" viewBox="0 0 1500 1500"><rect width="1500" height="1500" fill="#000000"></rect><g transform="matrix(0.6666666666666666,0,0,0.6666666666666666,249.39393939393938,654.8324319693515)"><svg viewBox="0 0 396 75" data-background-color="#ffffff" preserveAspectRatio="xMidYMid meet" height="284" width="1500" xmlns="http://www.w3.org/2000/svg" xmlns:xlink="http://www.w3.org/1999/xlink"><g id="tight-bounds" transform="matrix(1,0,0,1,0.2400000000000091,0.19842043467590997)"><svg viewBox="0 0 395.52 74.60315913064817" height="74.60315913064817" width="395.52"><g><svg viewBox="0 0 677.2028263586299 127.73429970306827" height="74.60315913064817" width="395.52"><g><rect width="11.461901461711435" height="127.73429970306827" x="425.52497764845924" y="0" fill="#ffffff" opacity="1" stroke-width="0" stroke="transparent" fill-opacity="1" class="rect-qz-0" data-fill-palette-color="secondary" rx="1%" id="qz-0" data-palette-color="#41907a"></rect></g><g transform="matrix(1,0,0,1,0,0.3177470141867289)"><svg viewBox="0 0 395.52 127.09880567469482" height="127.09880567469482" width="395.52"><g id="textblocktransform"><svg viewBox="0 0 395.52 127.09880567469482" height="127.09880567469482" width="395.52" id="textblock"><g><svg viewBox="0 0 395.52 127.09880567469482" height="127.09880567469482" width="395.52"><g transform="matrix(1,0,0,1,0,0)"><svg width="395.52" viewBox="3.7 -29.5 151.54000000000002 48.7" height="127.09880567469482" data-palette-color="#41907a"><path d="M16.85 0.15L16.85 0.15Q15.3 0.45 13.75 0.45L13.75 0.45Q8.7 0.45 5.75-2.8L5.75-2.8Q3.7-5.1 3.7-8.65L3.7-8.65Q3.7-16.3 10.6-22.65L10.6-22.65Q18.3-29.5 29.35-29.5L29.35-29.5Q32.5-29.5 34.8-28.3L34.8-28.3Q36.65-27.3 36.65-25.3L36.65-25.3Q36.65-24.45 36.15-24.35L36.15-24.35Q35.5-24.2 35.45-25.1L35.45-25.1Q35.25-28.4 30.35-28.4L30.35-28.4Q28.15-28.4 24.93-27.33 21.7-26.25 18.25-24.25 14.8-22.25 11.8-19.83 8.8-17.4 6.88-14.35 4.95-11.3 4.95-8.25 4.95-5.2 7.08-3.58 9.2-1.95 12.3-1.95L12.3-1.95Q15.7-1.95 20.2-3.15L20.2-3.15Q22.7-3.9 24.95-5.28 27.2-6.65 28.4-7.7L28.4-7.7Q30.65-9.6 32.95-11.9L32.95-11.9Q34.15-14.95 36.9-15.45L36.9-15.45Q38.05-15.65 39.4-15.45L39.4-15.45 40-15.35Q40.45-15.25 40.45-15.1L40.45-15.1Q40.45-14.6 39.8-14.65L39.8-14.65Q39.75-14.65 39.7-14.65L39.7-14.65Q37-14.65 35.25-9.6L35.25-9.6Q33.9-5.55 32.7-2.35L32.7-2.35Q35.35-2.95 36.2-2.95 37.05-2.95 37.4-2.75 37.75-2.55 37.52-2.3 37.3-2.05 37.08-2.15 36.85-2.25 36.27-2.25 35.7-2.25 34.02-1.83 32.35-1.4 32.05-0.6L32.05-0.6Q27.05 12.05 19.95 17L19.95 17Q16.75 19.2 14.25 19.2L14.25 19.2Q13.3 19.2 12.45 18.9L12.45 18.9Q10.15 18.05 10.15 15.5L10.15 15.5Q10.15 12.45 13.3 8.85L13.3 8.85Q19.4 1.8 29.95-1.6L29.95-1.6Q31.25-5.55 32.35-9.45L32.35-9.45Q23.4-1 16.85 0.15ZM12.85 14.8L12.85 14.8Q12.85 15.35 13 15.9L13 15.9Q13.5 17.85 15.5 17.85L15.5 17.85Q18.45 17.85 21.7 13.9L21.7 13.9Q26.55 7.85 29.6-0.65L29.6-0.65Q20.85 2.2 15.75 8.6L15.75 8.6Q12.85 12.15 12.85 14.8ZM40.6 19.05L40.6 19.05Q40.2 19.05 39.6 18.9L39.6 18.9Q37.05 18.25 37.05 16.23 37.05 14.2 39.67 11.15 42.3 8.1 50.75 2.5L50.75 2.5Q55.45-7.1 56.7-10.95L56.7-10.95Q56.1-10.25 54.35-7.93 52.6-5.6 51.25-3.98 49.9-2.35 48-0.9 46.1 0.55 44.5 0.55 42.9 0.55 42.02-0.18 41.15-0.9 41.05-1.7 40.95-2.5 40.95-3.05L40.95-3.05Q40.95-4.9 41.95-6.75L41.95-6.75Q43.45-9.8 46-12L46-12Q46.95-12.9 47.67-12.9 48.4-12.9 49-12.45L49-12.45Q49.65-11.75 49.4-11.25L49.4-11.25Q47.5-10.15 45.05-7L45.05-7Q43.75-5.3 43.25-2.7L43.25-2.7Q43.2-2.35 43.2-1.83 43.2-1.3 43.62-0.98 44.05-0.65 44.5-0.65L44.5-0.65Q46.05-0.65 47.75-2.3 49.45-3.95 51-5.78 52.55-7.6 54.52-10.15 56.5-12.7 57.12-13.5 57.75-14.3 58.4-14.3L58.4-14.3Q59.2-14.3 60.05-13.85 60.9-13.4 60.77-13.15 60.65-12.9 58.22-7.48 55.8-2.05 54.7 0.3L54.7 0.3Q55.9-0.35 58.77-2.78 61.65-5.2 63.65-7.7L63.65-7.7Q64.15-8.3 64.3-7.8L64.3-7.8Q64.35-7.7 64.35-7.48 64.35-7.25 64.05-6.85L64.05-6.85Q62.5-4.8 59.1-1.7 55.7 1.4 53.7 2.5L53.7 2.5Q49.45 11.25 48 13.5L48 13.5Q44.25 19.05 40.6 19.05ZM49.8 4.4L49.8 4.4Q43.8 8.9 41.22 11.5 38.65 14.1 38.65 15.98 38.65 17.85 39.95 17.85L39.95 17.85Q40.95 17.85 42.25 16.82 43.55 15.8 44.75 14.1 45.95 12.4 46.57 11.18 47.2 9.95 48.3 7.58 49.4 5.2 49.8 4.4ZM69.3-13L69.3-13Q69.3-12.65 68.75-11.48 68.2-10.3 65.59-3.4L65.59-3.4Q67.4-5.6 70.15-8.5L70.15-8.5Q75.7-14.3 77.8-14.3L77.8-14.3Q78.25-14.3 78.67-14.05 79.09-13.8 79.09-12.93 79.09-12.05 78.55-10.98 78-9.9 77.3-8.35 76.59-6.8 76.34-6.4L76.34-6.4Q80.55-10.2 82.7-11.03 84.84-11.85 85.55-11.85 86.25-11.85 86.25-11.35L86.25-11.35Q86.25-11.05 85.5-9.9 84.75-8.75 83.84-6.5 82.95-4.25 82.84-3.35 82.75-2.45 82.75-1.75 82.75-1.05 83.15-0.6L83.15-0.6Q83.9 0.2 85.2-0.5 86.5-1.2 88.82-3.3 91.15-5.4 92.55-7.4L92.55-7.4Q92.75-7.65 93.02-7.53 93.3-7.4 93.3-7.28 93.3-7.15 93.2-7L93.2-7Q92.45-5.65 90.5-3.55L90.5-3.55Q87.3-0.1 85.15 0.7L85.15 0.7Q82.8 1.5 81.75 0.9 80.7 0.3 80.45-0.45 80.2-1.2 80.2-1.95L80.2-1.95Q80.2-4.3 81.12-6.65 82.05-9 82.59-9.85L82.59-9.85Q80.7-9.05 79.34-7.85L79.34-7.85Q77.3-6.05 76.05-4.7L76.05-4.7 75.05-3.6Q74.59-2.5 73.47-2.35 72.34-2.2 72.4-3.1L72.4-3.1Q72.5-4.05 74.25-7.35 76-10.65 76-11.03 76-11.4 75.59-11.4L75.59-11.4Q74.7-11.4 72.34-9.35L72.34-9.35Q70.8-7.9 67.77-3.88 64.75 0.15 64.34 0.4L64.34 0.4Q62.55 1.3 62.1 1.3 61.65 1.3 61.65 1.15 61.65 1 61.8 0.7 61.95 0.4 64.84-8L64.84-8Q63.75-6.3 62.85-5.4L62.85-5.4Q62.45-4.95 62.45-5.58 62.45-6.2 62.8-6.65L62.8-6.65Q65.05-9.6 66.09-11.65L66.09-11.65Q66.4-13.4 67.3-13.7L67.3-13.7Q67.84-13.9 68.57-13.7 69.3-13.5 69.3-13ZM91.64-18.65L91.64-18.65Q91.54-19.3 91.54-19.45L91.54-19.45Q92.24-23.2 98.89-26.6L98.89-26.6Q104.14-29.05 111.29-29.05L111.29-29.05Q115.69-29.05 119.99-27.85L119.99-27.85Q122.89-26.85 124.39-25 125.89-23.15 125.89-21.25L125.89-21.25Q125.89-18.35 123.59-16.13 121.29-13.9 118.44-12.7L118.44-12.7Q112.09-9.95 103.94-9.65L103.94-9.65Q104.59-8.85 106.04-7.03 107.49-5.2 108.24-4.3 108.99-3.4 110.42-1.78 111.84-0.15 112.82 0.73 113.79 1.6 115.29 2.83 116.79 4.05 118.14 4.75L118.14 4.75Q122.84 7.25 126.34 7.25L126.34 7.25 128.04 7.1Q129.74 6.8 130.74 5.73 131.74 4.65 131.74 3.35L131.74 3.35Q131.74 2.85 131.62 2.27 131.49 1.7 131.94 1.7L131.94 1.7Q132.44 1.75 132.62 2.43 132.79 3.1 132.79 4.1 132.79 5.1 132.29 6.4L132.29 6.4Q131.74 8.2 129.24 9.15L129.24 9.15Q127.64 9.75 126.24 9.75L126.24 9.75Q122.04 9.75 117.74 7.4L117.74 7.4Q114.89 5.8 112.62 3.43 110.34 1.05 108.82-0.85 107.29-2.75 105.42-5.58 103.54-8.4 102.79-9.35L102.79-9.35 102.44-9.4Q98.64-2.4 98.64-0.95L98.64-0.95Q98.64-0.2 99.29-0.2 99.94-0.2 101.04-1.58 102.14-2.95 102.54-2.9L102.54-2.9Q102.84-2.6 101.89-1.6L101.89-1.6Q101.79-1.5 101.54-1.07 101.29-0.65 101.12-0.4 100.94-0.15 100.64 0.25 100.34 0.65 100.09 0.9 99.84 1.15 99.54 1.4L99.54 1.4Q98.94 1.9 98.49 1.9 98.04 1.9 97.24 1.73 96.44 1.55 96.44 1.05L96.44 1.05Q96.44-1.2 100.54-9.4L100.54-9.4Q98.89-9.55 98.89-10.6L98.89-10.6Q98.89-10.8 98.94-11.1L98.94-11.1Q99.29-11.95 100.22-11.95 101.14-11.95 101.69-11.5L101.69-11.5Q102.09-12.3 102.64-13.3L102.64-13.3Q104.59-16.8 104.59-17.75L104.59-17.75Q104.59-18 104.54-18.25L104.54-18.25Q104.74-19.65 106.97-21.93 109.19-24.2 110.99-24.2L110.99-24.2Q111.59-24.2 112.59-23.75 113.59-23.3 113.79-22.5L113.79-22.5Q113.84-22.15 113.82-22.08 113.79-22 113.54-22.1 113.29-22.2 113.24-22.2L113.24-22.2Q109.74-22.2 103.24-10.85L103.24-10.85Q103.84-10.6 104.42-10.6 104.99-10.6 105.39-10.65L105.39-10.65Q110.49-11.2 115.37-13.05 120.24-14.9 122.94-17.7L122.94-17.7Q124.69-19.4 124.69-21.3L124.69-21.3Q124.69-26.9 113.24-26.9L113.24-26.9Q106.69-26.9 100.74-24.9L100.74-24.9Q97.64-23.8 95.47-21.95 93.29-20.1 92.89-17.75L92.89-17.75Q92.84-17.5 92.84-17.1 92.84-16.7 93.17-16.13 93.49-15.55 93.94-15.25 94.39-14.95 95.22-14.55 96.04-14.15 96.32-13.95 96.59-13.75 96.44-13.53 96.29-13.3 95.79-13.4L95.79-13.4Q94.24-13.65 92.89-14.95 91.54-16.25 91.54-17.75L91.54-17.75Q91.54-18.2 91.64-18.65ZM121.39 0.55L121.39 0.55Q120.59 0.55 119.67 0.08 118.74-0.4 118.09-1.28 117.44-2.15 117.44-3.15 117.44-4.15 117.89-5.05L117.89-5.05Q118.89-7.15 121.12-9.13 123.34-11.1 125.74-12.5 128.14-13.9 129.54-14.25 130.94-14.6 132.27-14.6 133.59-14.6 134.54-13.93 135.49-13.25 135.49-12.5L135.49-12.5Q135.49-12.25 135.44-12.2 135.39-12.15 135.19-12.25L135.19-12.25Q134.59-13.2 132.72-13.2 130.84-13.2 128.47-11.98 126.09-10.75 123.99-8.9L123.99-8.9Q122.24-7.25 120.92-5.18 119.59-3.1 119.59-2.15L119.59-2.15Q119.59-0.3 120.64-0.3 121.69-0.3 123.84-2L123.84-2Q127.39-5 128.69-6.4L128.69-6.4Q133.29-11.35 133.64-11.35L133.64-11.35Q134.24-11.35 135.09-11 135.94-10.65 135.64-10.15L135.64-10.15Q133.09-6.55 132.64-2.9L132.64-2.9Q132.59-2.45 132.59-1.75 132.59-1.05 132.99-0.6L132.99-0.6Q133.74 0.2 135.04-0.5 136.34-1.2 138.67-3.3 140.99-5.4 142.39-7.4L142.39-7.4Q142.59-7.65 142.84-7.53 143.09-7.4 143.09-7.3L143.09-7.3Q143.09-6.55 140.72-4.03 138.34-1.5 137.09-0.6L137.09-0.6Q134.74 1.15 132.74 1.15L132.74 1.15Q130.84 1.15 130.19-0.75L130.19-0.75Q130.04-1.35 130.04-2.1L130.04-2.1Q130.04-4.35 130.99-6.85L130.99-6.85Q130.79-6.75 129.14-4.85 127.49-2.95 125.32-1.2 123.14 0.55 121.39 0.55ZM149.09-13.95L149.74-14Q153.59-14.35 154.41-14.35 155.24-14.35 155.24-14.1L155.24-14.1Q155.24-13.8 154.06-13.48 152.89-13.15 148.34-12.65L148.34-12.65Q148.09-12.2 147.74-11.6L147.74-11.6Q146.99-10.4 146.94-10.15L146.94-10.15Q144.09-4.45 143.94-2.9L143.94-2.9Q143.89-2.45 143.89-1.75 143.89-1.05 144.29-0.6L144.29-0.6Q144.99 0.2 146.29-0.5 147.59-1.2 149.91-3.3 152.24-5.4 153.69-7.4L153.69-7.4Q153.89-7.65 154.19-7.5L154.19-7.5Q154.94-7.15 151.59-3.55L151.59-3.55Q148.39-0.1 146.24 0.7L146.24 0.7Q144.99 1.15 144.14 1.15L144.14 1.15Q142.14 1.15 141.49-0.75L141.49-0.75Q141.39-1.1 141.39-1.6L141.39-1.6Q141.39-3.35 142.99-6.9L142.99-6.9Q142.74-6.35 141.04-4.4L141.04-4.4Q140.59-3.9 140.34-4.4L140.34-4.4Q140.29-4.5 140.29-4.67 140.29-4.85 140.49-5.1L140.49-5.1Q142.94-8.15 144.34-10.25L144.34-10.25Q144.34-10.3 145.44-12.35L145.44-12.35Q144.94-12.25 144.41-12.25 143.89-12.25 143.64-12.58 143.39-12.9 143.59-13.35L143.59-13.35Q143.94-14.15 146.24-14.25L146.24-14.25Q146.29-14.35 146.44-14.35L146.44-14.35 148.94-19Q149.14-19.4 149.39-19.83 149.64-20.25 149.76-20.48 149.89-20.7 150.04-20.95 150.19-21.2 150.29-21.3 150.39-21.4 150.49-21.5L150.49-21.5Q150.69-21.8 151.66-21.8 152.64-21.8 152.99-21.25L152.99-21.25Q153.14-21.05 153.14-20.58 153.14-20.1 152.79-19.53 152.44-18.95 152.04-18.7 151.64-18.45 151.49-18.15L151.49-18.15 149.09-13.95Z" opacity="1" transform="matrix(1,0,0,1,0,0)" fill="#ffffff" class="wordmark-text-0" data-fill-palette-color="primary" id="text-0"></path></svg></g></svg></g></svg></g></svg></g><g transform="matrix(1,0,0,1,466.9918567586299,3.0673989101860855)"><svg viewBox="0 0 210.21096959999997 121.5995018826961" height="121.5995018826961" width="210.21096959999997"><g><svg xmlns="http://www.w3.org/2000/svg" xmlns:xlink="http://www.w3.org/1999/xlink" version="1.1" x="8" y="0" viewBox="0.05910111329232494 18.732192179135772 99.88118029294742 62.537671255610526" enable-background="new 0 0 100 100" xml:space="preserve" height="121.5995018826961" width="194.21096959999997" class="icon-icon-0" data-fill-palette-color="accent" id="icon-0"><path d="M85.769 25.545c-16.021-10.841-27.102-6.746-37.883-1.416-9.817 4.852-13.551 4.608-13.551 4.608 0-5.24-5.592-2.766-5.592-2.766s-0.903-2.102-3.433-2.078c-5.059 0.048-7.417 10.806-7.417 10.806C6.631 38.072 1.09 51.014 1.09 51.014s-1.51 1.187-0.875 2.327c0.571 1.022 2.047 0.48 2.047 0.48 13.221 5.745 23.218-0.06 23.218-0.06 1.732 0.655 3.614-0.271 3.614-0.271 3.043 3.722 6.3 4.953 9.715 5.112 0.616 1.741 0.947 5.9-2.842 4.722-5.382-1.674-8.306-0.572-9.609 0.974-0.873 1.037-0.606 2.13 3.279 2.051h9.695c0 0 4.349 0.302 4.546-2.641 0.19-2.845 2.427-6.09 5.797-6.449 5.242-0.787 10.692-0.823 16.188 4 0.02 0.017 0.038 0.031 0.057 0.047 1.205 1.094 0.955 1.941-0.006 2.215-0.44 0.095-0.995 0.061-1.689-0.155-5.383-1.673-8.307-0.571-9.61 0.975-0.873 1.037-0.605 2.088 3.279 2.009h14.045c9.271 4.625 19.866 0.896 23.176-3.69 0.082 0.369 0.155 0.752 0.209 1.151 0.486 3.709-0.839 6.729-3.939 8.977-6.264 4.542-13.742 2.427-21.654 0.184-1.154-0.326-2.312-0.653-3.467-0.961-9.131-2.428-20.089-4.095-34.646 6.944-0.567 0.429-0.677 1.237-0.249 1.804 0.43 0.568 1.239 0.679 1.806 0.249 13.631-10.339 23.887-8.779 32.426-6.507 1.142 0.305 2.285 0.628 3.426 0.95 5.8 1.643 11.739 3.325 17.306 2.264 2.261-0.432 4.461-1.316 6.564-2.842 5.779-4.189 5.703-10.163 4.327-14.355C102.576 53.655 100.646 35.611 85.769 25.545z" fill="#ffffff" data-fill-palette-color="accent"></path></svg></g></svg></g></svg></g><defs></defs></svg><rect width="395.52" height="74.60315913064817" fill="none" stroke="none" visibility="hidden"></rect></g></svg></g></svg>